<mxfile host="65bd71144e">
    <diagram id="n5W9dpHo_4uRlmlUV37y" name="Page-1">
        <mxGraphModel dx="1614" dy="623" grid="1" gridSize="10" guides="1" tooltips="1" connect="1" arrows="1" fold="1" page="1" pageScale="1" pageWidth="1700" pageHeight="1100" background="#FFFFFF" math="0" shadow="0">
            <root>
                <mxCell id="0"/>
                <mxCell id="1" parent="0"/>
                <mxCell id="Vt560z4J3A8kVG_z0Vwq-2" value="" style="rounded=1;whiteSpace=wrap;html=1;fontSize=20;fillColor=none;arcSize=2;dashed=1;" parent="1" vertex="1">
                    <mxGeometry x="161" y="271" width="1079" height="659" as="geometry"/>
                </mxCell>
                <mxCell id="Vt560z4J3A8kVG_z0Vwq-3" value="Deployed Resources" style="rounded=1;whiteSpace=wrap;html=1;fontSize=20;fillColor=none;arcSize=2;dashed=1;labelPosition=center;verticalLabelPosition=bottom;align=center;verticalAlign=top;" parent="1" vertex="1">
                    <mxGeometry x="440" y="300" width="540" height="550" as="geometry"/>
                </mxCell>
                <mxCell id="Vt560z4J3A8kVG_z0Vwq-4" value="Deployment/Target&lt;br style=&quot;font-size: 20px;&quot;&gt;Account" style="outlineConnect=0;dashed=0;verticalLabelPosition=middle;verticalAlign=middle;align=left;html=1;shape=mxgraph.aws3.cloud_2;fillColor=#F58534;gradientColor=none;labelPosition=right;fontSize=20;" parent="1" vertex="1">
                    <mxGeometry x="160" y="270" width="60" height="60" as="geometry"/>
                </mxCell>
                <mxCell id="Vt560z4J3A8kVG_z0Vwq-5" value="Deploy" style="edgeStyle=orthogonalEdgeStyle;rounded=0;orthogonalLoop=1;jettySize=auto;html=1;entryX=0;entryY=0.5;entryDx=0;entryDy=0;fontSize=20;" parent="1" source="Vt560z4J3A8kVG_z0Vwq-6" target="Vt560z4J3A8kVG_z0Vwq-3" edge="1">
                    <mxGeometry x="0.2958" y="5" relative="1" as="geometry">
                        <mxPoint as="offset"/>
                    </mxGeometry>
                </mxCell>
                <mxCell id="Vt560z4J3A8kVG_z0Vwq-6" value="CAEF/CDK" style="sketch=0;points=[[0,0,0],[0.25,0,0],[0.5,0,0],[0.75,0,0],[1,0,0],[0,1,0],[0.25,1,0],[0.5,1,0],[0.75,1,0],[1,1,0],[0,0.25,0],[0,0.5,0],[0,0.75,0],[1,0.25,0],[1,0.5,0],[1,0.75,0]];outlineConnect=0;fontColor=#232F3E;gradientColor=#4D72F3;gradientDirection=north;fillColor=#3334B9;strokeColor=#ffffff;dashed=0;verticalLabelPosition=bottom;verticalAlign=top;align=center;html=1;fontSize=20;fontStyle=0;aspect=fixed;shape=mxgraph.aws4.resourceIcon;resIcon=mxgraph.aws4.cloud_development_kit;" parent="1" vertex="1">
                    <mxGeometry x="220" y="536" width="78" height="78" as="geometry"/>
                </mxCell>
                <mxCell id="Vt560z4J3A8kVG_z0Vwq-23" value="Uses" style="edgeStyle=orthogonalEdgeStyle;rounded=0;orthogonalLoop=1;jettySize=auto;html=1;fontSize=16;" parent="1" edge="1">
                    <mxGeometry relative="1" as="geometry">
                        <mxPoint x="673" y="511" as="sourcePoint"/>
                    </mxGeometry>
                </mxCell>
                <mxCell id="temhnbDpD8ueiIC_QQ7--7" style="edgeStyle=orthogonalEdgeStyle;rounded=0;orthogonalLoop=1;jettySize=auto;html=1;fontSize=16;" parent="1" edge="1">
                    <mxGeometry relative="1" as="geometry">
                        <mxPoint x="712" y="630" as="sourcePoint"/>
                    </mxGeometry>
                </mxCell>
                <mxCell id="temhnbDpD8ueiIC_QQ7--11" value="KMS Key" style="sketch=0;points=[[0,0,0],[0.25,0,0],[0.5,0,0],[0.75,0,0],[1,0,0],[0,1,0],[0.25,1,0],[0.5,1,0],[0.75,1,0],[1,1,0],[0,0.25,0],[0,0.5,0],[0,0.75,0],[1,0.25,0],[1,0.5,0],[1,0.75,0]];outlineConnect=0;fontColor=#232F3E;gradientColor=#F54749;gradientDirection=north;fillColor=#C7131F;strokeColor=#ffffff;dashed=0;verticalLabelPosition=bottom;verticalAlign=top;align=center;html=1;fontSize=16;fontStyle=0;aspect=fixed;shape=mxgraph.aws4.resourceIcon;resIcon=mxgraph.aws4.key_management_service;" parent="1" vertex="1">
                    <mxGeometry x="460" y="700" width="78" height="78" as="geometry"/>
                </mxCell>
                <mxCell id="temhnbDpD8ueiIC_QQ7--12" value="Instance&#10;Role" style="group;labelPosition=right;verticalLabelPosition=middle;align=left;verticalAlign=middle;fontSize=20;" parent="1" vertex="1" connectable="0">
                    <mxGeometry x="1030" y="550" width="72" height="68" as="geometry"/>
                </mxCell>
                <mxCell id="temhnbDpD8ueiIC_QQ7--13" value="" style="rounded=0;whiteSpace=wrap;html=1;verticalAlign=top;fillColor=#C7131F;strokeColor=#ffffff;fontColor=#232F3E;sketch=0;gradientColor=#F54749;gradientDirection=north;dashed=0;fontStyle=0;" parent="temhnbDpD8ueiIC_QQ7--12" vertex="1">
                    <mxGeometry width="72" height="68" as="geometry"/>
                </mxCell>
                <mxCell id="temhnbDpD8ueiIC_QQ7--14" value="" style="sketch=0;outlineConnect=0;dashed=0;verticalLabelPosition=bottom;verticalAlign=top;align=center;html=1;fontSize=12;fontStyle=0;aspect=fixed;pointerEvents=1;shape=mxgraph.aws4.role;" parent="temhnbDpD8ueiIC_QQ7--12" vertex="1">
                    <mxGeometry x="5" y="17" width="60.27" height="34" as="geometry"/>
                </mxCell>
                <mxCell id="18" value="Instance&lt;br&gt;Profile" style="edgeStyle=orthogonalEdgeStyle;rounded=0;html=1;fontSize=16;" parent="1" source="10" target="temhnbDpD8ueiIC_QQ7--14" edge="1">
                    <mxGeometry relative="1" as="geometry"/>
                </mxCell>
                <mxCell id="19" value="Launched In" style="edgeStyle=orthogonalEdgeStyle;rounded=0;html=1;entryX=0;entryY=0.5;entryDx=0;entryDy=0;entryPerimeter=0;fontSize=16;" parent="1" source="10" target="17" edge="1">
                    <mxGeometry relative="1" as="geometry">
                        <Array as="points">
                            <mxPoint x="739" y="439"/>
                        </Array>
                    </mxGeometry>
                </mxCell>
                <mxCell id="20" value="Secured&lt;br&gt;By" style="edgeStyle=orthogonalEdgeStyle;rounded=0;html=1;fontSize=16;" parent="1" source="10" target="13" edge="1">
                    <mxGeometry relative="1" as="geometry"/>
                </mxCell>
                <mxCell id="10" value="EC2 Instance" style="sketch=0;points=[[0,0,0],[0.25,0,0],[0.5,0,0],[0.75,0,0],[1,0,0],[0,1,0],[0.25,1,0],[0.5,1,0],[0.75,1,0],[1,1,0],[0,0.25,0],[0,0.5,0],[0,0.75,0],[1,0.25,0],[1,0.5,0],[1,0.75,0]];outlineConnect=0;fontColor=#232F3E;gradientColor=#F78E04;gradientDirection=north;fillColor=#D05C17;strokeColor=#ffffff;dashed=0;verticalLabelPosition=bottom;verticalAlign=top;align=center;html=1;fontSize=16;fontStyle=0;aspect=fixed;shape=mxgraph.aws4.resourceIcon;resIcon=mxgraph.aws4.ec2;" parent="1" vertex="1">
                    <mxGeometry x="700" y="550" width="78" height="78" as="geometry"/>
                </mxCell>
                <mxCell id="15" value="Encrypted By" style="edgeStyle=orthogonalEdgeStyle;html=1;fontSize=16;" parent="1" source="11" target="12" edge="1">
                    <mxGeometry relative="1" as="geometry"/>
                </mxCell>
                <mxCell id="16" value="Encrypted By" style="edgeStyle=orthogonalEdgeStyle;html=1;fontSize=16;rounded=0;" parent="1" source="11" target="temhnbDpD8ueiIC_QQ7--11" edge="1">
                    <mxGeometry relative="1" as="geometry"/>
                </mxCell>
                <mxCell id="11" value="EBS Volumes" style="sketch=0;points=[[0,0,0],[0.25,0,0],[0.5,0,0],[0.75,0,0],[1,0,0],[0,1,0],[0.25,1,0],[0.5,1,0],[0.75,1,0],[1,1,0],[0,0.25,0],[0,0.5,0],[0,0.75,0],[1,0.25,0],[1,0.5,0],[1,0.75,0]];outlineConnect=0;fontColor=#232F3E;gradientColor=#60A337;gradientDirection=north;fillColor=#277116;strokeColor=#ffffff;dashed=0;verticalLabelPosition=bottom;verticalAlign=top;align=center;html=1;fontSize=16;fontStyle=0;aspect=fixed;shape=mxgraph.aws4.resourceIcon;resIcon=mxgraph.aws4.elastic_block_store;" parent="1" vertex="1">
                    <mxGeometry x="700" y="700" width="78" height="78" as="geometry"/>
                </mxCell>
                <mxCell id="12" value="Existing&lt;br&gt;KMS Key" style="sketch=0;points=[[0,0,0],[0.25,0,0],[0.5,0,0],[0.75,0,0],[1,0,0],[0,1,0],[0.25,1,0],[0.5,1,0],[0.75,1,0],[1,1,0],[0,0.25,0],[0,0.5,0],[0,0.75,0],[1,0.25,0],[1,0.5,0],[1,0.75,0]];outlineConnect=0;fontColor=#232F3E;gradientColor=#F54749;gradientDirection=north;fillColor=#C7131F;strokeColor=#ffffff;dashed=0;verticalLabelPosition=bottom;verticalAlign=top;align=center;html=1;fontSize=16;fontStyle=0;aspect=fixed;shape=mxgraph.aws4.resourceIcon;resIcon=mxgraph.aws4.key_management_service;" parent="1" vertex="1">
                    <mxGeometry x="1027" y="700" width="78" height="78" as="geometry"/>
                </mxCell>
                <mxCell id="13" value="Security Group" style="sketch=0;points=[[0,0,0],[0.25,0,0],[0.5,0,0],[0.75,0,0],[1,0,0],[0,1,0],[0.25,1,0],[0.5,1,0],[0.75,1,0],[1,1,0],[0,0.25,0],[0,0.5,0],[0,0.75,0],[1,0.25,0],[1,0.5,0],[1,0.75,0]];outlineConnect=0;fontColor=#232F3E;gradientColor=#945DF2;gradientDirection=north;fillColor=#5A30B5;strokeColor=#ffffff;dashed=0;verticalLabelPosition=bottom;verticalAlign=top;align=center;html=1;fontSize=16;fontStyle=0;aspect=fixed;shape=mxgraph.aws4.resourceIcon;resIcon=mxgraph.aws4.vpc;" parent="1" vertex="1">
                    <mxGeometry x="460" y="550" width="78" height="78" as="geometry"/>
                </mxCell>
                <mxCell id="17" value="Existing Subnet" style="sketch=0;points=[[0,0,0],[0.25,0,0],[0.5,0,0],[0.75,0,0],[1,0,0],[0,1,0],[0.25,1,0],[0.5,1,0],[0.75,1,0],[1,1,0],[0,0.25,0],[0,0.5,0],[0,0.75,0],[1,0.25,0],[1,0.5,0],[1,0.75,0]];outlineConnect=0;fontColor=#232F3E;gradientColor=#945DF2;gradientDirection=north;fillColor=#5A30B5;strokeColor=#ffffff;dashed=0;verticalLabelPosition=bottom;verticalAlign=top;align=center;html=1;fontSize=16;fontStyle=0;aspect=fixed;shape=mxgraph.aws4.resourceIcon;resIcon=mxgraph.aws4.vpc;" parent="1" vertex="1">
                    <mxGeometry x="1030" y="400" width="78" height="78" as="geometry"/>
                </mxCell>
                <mxCell id="21" value="KMS Key" style="sketch=0;points=[[0,0,0],[0.25,0,0],[0.5,0,0],[0.75,0,0],[1,0,0],[0,1,0],[0.25,1,0],[0.5,1,0],[0.75,1,0],[1,1,0],[0,0.25,0],[0,0.5,0],[0,0.75,0],[1,0.25,0],[1,0.5,0],[1,0.75,0]];outlineConnect=0;fontColor=#232F3E;gradientColor=#F54749;gradientDirection=north;fillColor=#C7131F;strokeColor=#ffffff;dashed=0;verticalLabelPosition=bottom;verticalAlign=top;align=center;html=1;fontSize=16;fontStyle=0;aspect=fixed;shape=mxgraph.aws4.resourceIcon;resIcon=mxgraph.aws4.key_management_service;" vertex="1" parent="1">
                    <mxGeometry x="560" y="140" width="78" height="78" as="geometry"/>
                </mxCell>
                <mxCell id="24" value="EC2 KeyPair and Secret" style="group;labelPosition=center;verticalLabelPosition=bottom;align=center;verticalAlign=top;" vertex="1" connectable="0" parent="1">
                    <mxGeometry x="460" y="360" width="156" height="79" as="geometry"/>
                </mxCell>
                <mxCell id="22" value="" style="sketch=0;points=[[0,0,0],[0.25,0,0],[0.5,0,0],[0.75,0,0],[1,0,0],[0,1,0],[0.25,1,0],[0.5,1,0],[0.75,1,0],[1,1,0],[0,0.25,0],[0,0.5,0],[0,0.75,0],[1,0.25,0],[1,0.5,0],[1,0.75,0]];outlineConnect=0;fontColor=#232F3E;gradientColor=#F54749;gradientDirection=north;fillColor=#C7131F;strokeColor=#ffffff;dashed=0;verticalLabelPosition=bottom;verticalAlign=top;align=center;html=1;fontSize=16;fontStyle=0;aspect=fixed;shape=mxgraph.aws4.resourceIcon;resIcon=mxgraph.aws4.key_management_service;" vertex="1" parent="24">
                    <mxGeometry x="78" width="78" height="78" as="geometry"/>
                </mxCell>
                <mxCell id="23" value="" style="sketch=0;points=[[0,0,0],[0.25,0,0],[0.5,0,0],[0.75,0,0],[1,0,0],[0,1,0],[0.25,1,0],[0.5,1,0],[0.75,1,0],[1,1,0],[0,0.25,0],[0,0.5,0],[0,0.75,0],[1,0.25,0],[1,0.5,0],[1,0.75,0]];outlineConnect=0;fontColor=#232F3E;gradientColor=#F54749;gradientDirection=north;fillColor=#C7131F;strokeColor=#ffffff;dashed=0;verticalLabelPosition=bottom;verticalAlign=top;align=center;html=1;fontSize=12;fontStyle=0;aspect=fixed;shape=mxgraph.aws4.resourceIcon;resIcon=mxgraph.aws4.secrets_manager;" vertex="1" parent="24">
                    <mxGeometry y="1" width="78" height="78" as="geometry"/>
                </mxCell>
                <mxCell id="25" value="Bound to" style="edgeStyle=none;html=1;entryX=0;entryY=0;entryDx=0;entryDy=0;entryPerimeter=0;" edge="1" parent="1" source="22" target="10">
                    <mxGeometry relative="1" as="geometry"/>
                </mxCell>
            </root>
        </mxGraphModel>
    </diagram>
</mxfile>